HIERARCHY
ROOT Hips
{
  OFFSET -17.8222 7.7 127.125
  CHANNELS 6 Xposition Yposition Zposition Zrotation Xrotation Yrotation
  JOINT Spine
  {
    OFFSET 0 0 0
    CHANNELS 3 Zrotation Xrotation Yrotation
    JOINT Spine1
    {
      OFFSET 19 0 0
      CHANNELS 3 Zrotation Xrotation Yrotation
      JOINT Neck
      {
        OFFSET 22.5 0.6 0
        CHANNELS 3 Zrotation Xrotation Yrotation
        JOINT Head
        {
          OFFSET 14 0.0308777 0
          CHANNELS 3 Zrotation Xrotation Yrotation
          End Site
          {
            OFFSET 17 0 0
          }
        }
      }
      JOINT LeftShoulder
      {
        OFFSET 19.8 3.7 4.3
        CHANNELS 3 Zrotation Xrotation Yrotation
        JOINT LeftArm
        {
          OFFSET 8 0 0
          CHANNELS 3 Zrotation Xrotation Yrotation
          JOINT LeftForeArm
          {
            OFFSET 15.2 0 0
            CHANNELS 3 Zrotation Xrotation Yrotation
            JOINT LeftHand
            {
              OFFSET 17.8 0 0
              CHANNELS 3 Zrotation Xrotation Yrotation
              End Site
              {
                OFFSET 7.2 0 0
              }
            }
          }
        }
      }
      JOINT RightShoulder
      {
        OFFSET 19.8 3.7 -4.3
        CHANNELS 3 Zrotation Xrotation Yrotation
        JOINT RightArm
        {
          OFFSET 8 0 0.151654
          CHANNELS 3 Zrotation Xrotation Yrotation
          JOINT RightForeArm
          {
            OFFSET 15.2 0 0
            CHANNELS 3 Zrotation Xrotation Yrotation
            JOINT RightHand
            {
              OFFSET 17.8 0 0
              CHANNELS 3 Zrotation Xrotation Yrotation
              End Site
              {
                OFFSET 7.2 0 0
              }
            }
          }
        }
      }
    }
  }
  JOINT LeftUpLeg
  {
    OFFSET 5.98425 -7.666 4.78879
    CHANNELS 3 Zrotation Xrotation Yrotation
    JOINT LeftLeg
    {
      OFFSET 16 0 0
      CHANNELS 3 Zrotation Xrotation Yrotation
      JOINT LeftFoot
      {
        OFFSET 18 0 0
        CHANNELS 3 Zrotation Xrotation Yrotation
        End Site
        {
          OFFSET 0 -10.8 0
        }
      }
    }
  }
  JOINT RightUpLeg
  {
    OFFSET 5.98425 -7.66598 -4.78879
    CHANNELS 3 Zrotation Xrotation Yrotation
    JOINT RightLeg
    {
      OFFSET 16 0 0
      CHANNELS 3 Zrotation Xrotation Yrotation
      JOINT RightFoot
      {
        OFFSET 18 0 0
        CHANNELS 3 Zrotation Xrotation Yrotation
        End Site
        {
          OFFSET 0 -10.8 0
        }
      }
    }
  }
  JOINT Tail
  {
    OFFSET 6.83696 -0.722574 0
    CHANNELS 3 Zrotation Xrotation Yrotation
    JOINT Tail1
    {
      OFFSET 12 0 0
      CHANNELS 3 Zrotation Xrotation Yrotation
      End Site
      {
        OFFSET 12 0 0
      }
    }
  }
}
MOTION
Frames:	12
Frame Time:	0.0166667
-12.5257 9.64707 -351.373 113 -75.8073 -153.889 -126.321 -1.21821 -6.33549 -4.09568 -0.155042 11.4433 -5.59796 -10.7547 4.71632 -98.0101 72.9906 106.316 -109.562 -35.1095 -138.814 103.135 -67.8356 -141.268 -72.462 10.444 -0.272715 4.72547 0.392668 -13.8037 77.123 -29.2458 49.5105 124.975 -69.3281 17.7524 -83.1856 -11.5693 -2.23432 4.55282 0.193483 -4.99717 -163.028 77.9957 30.1979 -19.7943 82.3068 178.622 -30.1991 -1.06306 25.5964 -120.552 -45.0269 7.70658 153.204 -49.406 -7.072 -31.8752 -3.08451 -20.6077 80.4494 21.6321 -15.7555 16.1378 -20.223 8.07871 
-13.1928 9.40529 -351.369 112.89 -75.3785 -153.889 -126.331 -1.17695 -6.13689 -4.02744 -0.147402 11.0294 -5.41518 -10.8222 4.95116 -97.5174 72.642 105.982 -109.682 -35.2701 -138.816 102.543 -69.0139 -144.589 -73.9058 9.71247 0.613958 5.68788 0.451025 -13.7176 77.1782 -29.1472 49.4905 125.584 -70.1364 17.9167 -83.9751 -11.2742 -2.12055 5.57719 0.191979 -4.26951 -144.491 63.3985 8.3799 165.475 73.1879 -3.57109 -28.7897 -1.38017 26.6427 -124.758 -41.2805 6.56595 155.578 -45.7494 -6.18385 -29.1432 -3.5904 -20.0023 80.7946 21.5529 -16.187 16.0799 -20.1998 8.03307 
-13.7983 9.23728 -351.357 111.571 -75.1531 -155.192 -127.012 -1.25818 -6.41609 -3.37984 -0.11404 11.2672 -5.63995 -10.642 4.87702 -96.8782 72.4862 106.057 -109.749 -35.3981 -138.742 102.644 -69.752 -146.884 -74.9305 8.72233 1.38274 6.56555 0.445379 -13.2972 77.0853 -29.2569 49.3931 124.981 -70.895 17.0749 -84.4437 -10.9665 -1.89936 6.72524 0.141093 -3.72385 -138.983 48.4486 -0.306509 166.108 50.5145 -1.32038 -28.706 -1.98212 26.6445 -129.19 -37.4048 5.6046 157.776 -41.6287 -5.38161 -26.3243 -4.13394 -19.5135 80.5954 22.0039 -16.8411 16.3229 -20.4229 8.39006 
-13.658 9.3626 -351.327 109.481 -75.5239 -157.196 -128.119 -1.2113 -6.62893 -2.57216 -0.0103337 11.6573 -5.95311 -10.381 4.68468 -96.6291 72.8177 106.419 -109.67 -35.2673 -138.791 104.064 -69.1133 -145.304 -74.199 8.37304 1.23883 6.28161 0.443816 -13.4145 77.0256 -29.3683 49.4261 123.507 -70.9379 16.2218 -83.9878 -10.8852 -2.02516 6.42311 0.141557 -3.86005 -137.764 51.8413 -0.540026 165.458 56.5119 -1.5278 -30.4229 -2.27257 26.0392 -129.095 -37.9337 5.76274 157.357 -42.3113 -5.48079 -26.7805 -4.05907 -19.7827 79.7665 22.381 -17.0243 16.5651 -20.6782 8.71862 
-13.6442 9.36329 -351.328 109.695 -75.6596 -156.885 -128.388 -1.12749 -6.61669 -2.23188 0.0901093 11.6478 -5.79904 -10.4501 4.75745 -96.4565 72.8698 106.241 -109.602 -35.1912 -138.757 104.533 -69.2414 -145.496 -74.1825 8.17313 1.40683 6.25723 0.467997 -13.6409 76.9822 -29.4719 49.5023 123.039 -71.3182 16.1521 -83.863 -10.5311 -2.21877 6.46198 0.13557 -3.6452 -137.346 52.4181 -0.601982 165.382 57.0259 -1.49691 -30.8959 -2.38638 25.8457 -129.36 -38.4606 5.4025 157.321 -43.2379 -5.56969 -26.6197 -4.08562 -20.136 79.7882 22.0965 -16.8442 16.439 -20.5717 8.61633 
-13.6298 9.32417 -351.328 110.338 -75.6613 -156.309 -128.412 -1.10963 -6.66602 -2.04575 0.139416 11.7139 -5.61941 -10.4745 4.74788 -96.3333 73.0169 105.981 -109.582 -35.1728 -138.738 104.574 -69.1813 -145.603 -74.5096 7.67089 1.53528 6.6659 0.421481 -13.449 76.9615 -29.535 49.5702 123.046 -71.4952 16.4004 -83.9292 -10.3822 -2.2825 6.6487 0.121343 -3.61955 -136.955 52.2181 -0.764923 165.407 56.7649 -1.48756 -31.1355 -2.46071 25.5392 -129.566 -38.6217 5.23119 157.406 -43.3139 -5.57625 -26.4362 -4.12673 -20.2887 79.971 21.9741 -16.6831 16.3406 -20.4718 8.52974 
-13.6499 9.29184 -351.318 110.439 -75.6117 -156.371 -128.374 -1.12691 -6.70401 -2.07286 0.139962 11.7248 -5.44491 -10.4071 4.67782 -96.2713 73.0817 105.986 -109.503 -35.121 -138.628 104.759 -69.0867 -145.184 -74.6115 7.31547 1.41808 7.33965 0.349309 -13.0836 77.0349 -29.4606 49.6754 123.296 -71.4369 16.794 -84.0111 -10.598 -2.27158 6.58424 0.144069 -3.83963 -137.94 52.161 0.135005 165.591 56.3045 -1.49972 -30.6165 -2.31753 26.3528 -129.263 -38.5627 5.36819 157.38 -42.9287 -5.55414 -26.6999 -4.07339 -20.0638 80.0021 22.1596 -16.6832 16.369 -20.4861 8.52813 
-13.6727 9.28919 -351.344 110.959 -75.5687 -155.92 -128.062 -1.12639 -6.63741 -2.31569 0.118001 11.6256 -5.18557 -10.6111 4.88215 -95.611 73.2874 105.382 -109.423 -35.0835 -138.482 104.647 -69.1151 -145.179 -74.641 7.05905 1.37181 7.69617 0.339962 -13.1806 77.0069 -29.5229 49.7135 123.776 -71.5872 17.2512 -84.0517 -10.4921 -2.3267 6.54029 0.144245 -3.66335 -137.897 52.2452 0.150922 165.574 56.4154 -1.50531 -30.4119 -2.25854 26.5466 -129.028 -38.4682 5.48003 157.297 -42.9346 -5.56677 -26.7538 -4.05681 -19.9585 80.1708 22.1365 -16.6573 16.3774 -20.4261 8.5394 
-13.6702 9.30633 -351.384 111.708 -75.5798 -155.108 -127.675 -1.08126 -6.53544 -2.58148 0.126142 11.5188 -5.0354 -10.6682 4.97367 -95.1903 73.3403 105.249 -109.518 -35.1336 -138.641 103.409 -69.028 -146.279 -75.0566 7.15226 1.53668 7.27159 0.351756 -13.1333 76.9831 -29.5448 49.6742 124.058 -71.4754 17.0621 -84.2207 -10.2243 -2.35101 6.62291 0.10436 -3.28309 -136.852 51.8835 -0.870678 165.364 56.1359 -1.48374 -30.5718 -2.33549 25.6129 -129.211 -38.3904 5.40285 157.301 -43.1695 -5.57624 -26.3354 -4.1255 -20.0743 80.3685 21.9405 -16.6009 16.3126 -20.3499 8.50846 
-13.6535 9.29532 -351.39 111.649 -75.6335 -155.13 -127.65 -1.07381 -6.50668 -2.62027 0.113636 11.5255 -5.01764 -10.4535 4.85515 -95.1928 73.3625 105.664 -109.72 -35.2436 -138.974 103.005 -69.2564 -147.015 -74.953 7.96749 1.67919 6.14085 0.44592 -13.4758 76.977 -29.5004 49.5486 123.957 -71.14 16.2946 -84.3118 -10.6327 -2.11945 6.47371 0.104629 -3.45104 -136.568 51.8988 -1.12387 165.358 56.3776 -1.48374 -30.8094 -2.39388 25.1515 -129.716 -38.3008 5.25359 157.442 -42.8681 -5.5139 -25.8594 -4.20881 -20.174 80.3035 21.9522 -16.6174 16.3283 -20.3791 8.5323 
-13.6633 9.27735 -351.379 111.058 -75.6679 -155.787 -127.779 -1.12117 -6.51011 -2.5679 0.0603398 11.542 -5.04901 -10.358 4.78757 -95.3891 73.3909 105.801 -109.715 -35.285 -138.878 103.512 -69.5315 -146.724 -74.6986 8.01728 1.66997 6.13061 0.482633 -13.8835 76.9421 -29.5062 49.4307 123.943 -71.1359 15.9462 -84.279 -11.0095 -1.8561 6.37454 0.0983742 -3.50328 -137.404 52.1528 -0.414624 165.535 56.4552 -1.50384 -30.4991 -2.28404 25.583 -129.961 -38.3282 5.23235 157.491 -42.7086 -5.48789 -25.7854 -4.21643 -20.1591 80.0814 22.2247 -16.7232 16.4718 -20.4954 8.65576 
-13.69 9.2821 -351.382 110.946 -75.7186 -155.943 -127.818 -1.14513 -6.50984 -2.50865 0.0514985 11.4859 -5.02258 -10.2707 4.71019 -96.0502 73.1145 106.25 -109.735 -35.3644 -138.771 103.652 -69.6149 -146.649 -74.7299 7.49942 1.70509 6.5861 0.483628 -14.2681 76.9601 -29.4629 49.3984 123.861 -71.1495 15.8663 -84.3488 -10.9744 -1.90591 6.28788 0.0959435 -3.36785 -137.892 52.0788 -0.234418 165.577 55.8292 -1.4973 -30.0445 -2.17623 25.7062 -130.133 -38.2923 5.17798 157.51 -42.7292 -5.47719 -25.682 -4.22025 -20.1149 80.0094 22.335 -16.7858 16.5406 -20.5236 8.75636 
